<?xml version="1.0" encoding="UTF-8" ?>
<svg version="1.1" width="128" height="128" xmlns="http://www.w3.org/2000/svg" shape-rendering="crispEdges">
<rect x="6" y="48" width="1" height="1" fill="#000000" />
<rect x="7" y="48" width="1" height="1" fill="#000000" />
<rect x="8" y="48" width="1" height="1" fill="#000000" />
<rect x="9" y="48" width="1" height="1" fill="#000000" />
<rect x="10" y="48" width="1" height="1" fill="#000000" />
<rect x="11" y="48" width="1" height="1" fill="#000000" />
<rect x="12" y="48" width="1" height="1" fill="#000000" />
<rect x="13" y="48" width="1" height="1" fill="#000000" />
<rect x="14" y="48" width="1" height="1" fill="#000000" />
<rect x="15" y="48" width="1" height="1" fill="#000000" />
<rect x="16" y="48" width="1" height="1" fill="#000000" />
<rect x="17" y="48" width="1" height="1" fill="#000000" />
<rect x="18" y="48" width="1" height="1" fill="#000000" />
<rect x="19" y="48" width="1" height="1" fill="#000000" />
<rect x="20" y="48" width="1" height="1" fill="#000000" />
<rect x="21" y="48" width="1" height="1" fill="#000000" />
<rect x="22" y="48" width="1" height="1" fill="#000000" />
<rect x="23" y="48" width="1" height="1" fill="#000000" />
<rect x="24" y="48" width="1" height="1" fill="#000000" />
<rect x="25" y="48" width="1" height="1" fill="#000000" />
<rect x="26" y="48" width="1" height="1" fill="#000000" />
<rect x="27" y="48" width="1" height="1" fill="#000000" />
<rect x="28" y="48" width="1" height="1" fill="#000000" />
<rect x="29" y="48" width="1" height="1" fill="#000000" />
<rect x="30" y="48" width="1" height="1" fill="#000000" />
<rect x="31" y="48" width="1" height="1" fill="#000000" />
<rect x="32" y="48" width="1" height="1" fill="#000000" />
<rect x="33" y="48" width="1" height="1" fill="#000000" />
<rect x="34" y="48" width="1" height="1" fill="#000000" />
<rect x="35" y="48" width="1" height="1" fill="#000000" />
<rect x="36" y="48" width="1" height="1" fill="#000000" />
<rect x="37" y="48" width="1" height="1" fill="#000000" />
<rect x="38" y="48" width="1" height="1" fill="#000000" />
<rect x="39" y="48" width="1" height="1" fill="#000000" />
<rect x="40" y="48" width="1" height="1" fill="#000000" />
<rect x="41" y="48" width="1" height="1" fill="#000000" />
<rect x="42" y="48" width="1" height="1" fill="#000000" />
<rect x="43" y="48" width="1" height="1" fill="#000000" />
<rect x="44" y="48" width="1" height="1" fill="#000000" />
<rect x="45" y="48" width="1" height="1" fill="#000000" />
<rect x="46" y="48" width="1" height="1" fill="#000000" />
<rect x="47" y="48" width="1" height="1" fill="#000000" />
<rect x="48" y="48" width="1" height="1" fill="#000000" />
<rect x="49" y="48" width="1" height="1" fill="#000000" />
<rect x="50" y="48" width="1" height="1" fill="#000000" />
<rect x="51" y="48" width="1" height="1" fill="#000000" />
<rect x="52" y="48" width="1" height="1" fill="#000000" />
<rect x="53" y="48" width="1" height="1" fill="#000000" />
<rect x="54" y="48" width="1" height="1" fill="#000000" />
<rect x="55" y="48" width="1" height="1" fill="#000000" />
<rect x="56" y="48" width="1" height="1" fill="#000000" />
<rect x="57" y="48" width="1" height="1" fill="#000000" />
<rect x="58" y="48" width="1" height="1" fill="#000000" />
<rect x="59" y="48" width="1" height="1" fill="#000000" />
<rect x="60" y="48" width="1" height="1" fill="#000000" />
<rect x="61" y="48" width="1" height="1" fill="#000000" />
<rect x="62" y="48" width="1" height="1" fill="#000000" />
<rect x="63" y="48" width="1" height="1" fill="#000000" />
<rect x="64" y="48" width="1" height="1" fill="#000000" />
<rect x="65" y="48" width="1" height="1" fill="#000000" />
<rect x="66" y="48" width="1" height="1" fill="#000000" />
<rect x="67" y="48" width="1" height="1" fill="#000000" />
<rect x="68" y="48" width="1" height="1" fill="#000000" />
<rect x="69" y="48" width="1" height="1" fill="#000000" />
<rect x="70" y="48" width="1" height="1" fill="#000000" />
<rect x="71" y="48" width="1" height="1" fill="#000000" />
<rect x="72" y="48" width="1" height="1" fill="#000000" />
<rect x="73" y="48" width="1" height="1" fill="#000000" />
<rect x="74" y="48" width="1" height="1" fill="#000000" />
<rect x="75" y="48" width="1" height="1" fill="#000000" />
<rect x="76" y="48" width="1" height="1" fill="#000000" />
<rect x="77" y="48" width="1" height="1" fill="#000000" />
<rect x="78" y="48" width="1" height="1" fill="#000000" />
<rect x="79" y="48" width="1" height="1" fill="#000000" />
<rect x="80" y="48" width="1" height="1" fill="#000000" />
<rect x="81" y="48" width="1" height="1" fill="#000000" />
<rect x="82" y="48" width="1" height="1" fill="#000000" />
<rect x="83" y="48" width="1" height="1" fill="#000000" />
<rect x="84" y="48" width="1" height="1" fill="#000000" />
<rect x="85" y="48" width="1" height="1" fill="#000000" />
<rect x="86" y="48" width="1" height="1" fill="#000000" />
<rect x="87" y="48" width="1" height="1" fill="#000000" />
<rect x="88" y="48" width="1" height="1" fill="#000000" />
<rect x="89" y="48" width="1" height="1" fill="#000000" />
<rect x="90" y="48" width="1" height="1" fill="#000000" />
<rect x="91" y="48" width="1" height="1" fill="#000000" />
<rect x="92" y="48" width="1" height="1" fill="#000000" />
<rect x="93" y="48" width="1" height="1" fill="#000000" />
<rect x="94" y="48" width="1" height="1" fill="#000000" />
<rect x="95" y="48" width="1" height="1" fill="#000000" />
<rect x="96" y="48" width="1" height="1" fill="#000000" />
<rect x="97" y="48" width="1" height="1" fill="#000000" />
<rect x="98" y="48" width="1" height="1" fill="#000000" />
<rect x="99" y="48" width="1" height="1" fill="#000000" />
<rect x="100" y="48" width="1" height="1" fill="#000000" />
<rect x="101" y="48" width="1" height="1" fill="#000000" />
<rect x="102" y="48" width="1" height="1" fill="#000000" />
<rect x="103" y="48" width="1" height="1" fill="#000000" />
<rect x="104" y="48" width="1" height="1" fill="#000000" />
<rect x="105" y="48" width="1" height="1" fill="#000000" />
<rect x="106" y="48" width="1" height="1" fill="#000000" />
<rect x="107" y="48" width="1" height="1" fill="#000000" />
<rect x="108" y="48" width="1" height="1" fill="#000000" />
<rect x="109" y="48" width="1" height="1" fill="#000000" />
<rect x="110" y="48" width="1" height="1" fill="#000000" />
<rect x="111" y="48" width="1" height="1" fill="#000000" />
<rect x="112" y="48" width="1" height="1" fill="#000000" />
<rect x="113" y="48" width="1" height="1" fill="#000000" />
<rect x="114" y="48" width="1" height="1" fill="#000000" />
<rect x="115" y="48" width="1" height="1" fill="#000000" />
<rect x="116" y="48" width="1" height="1" fill="#000000" />
<rect x="117" y="48" width="1" height="1" fill="#000000" />
<rect x="118" y="48" width="1" height="1" fill="#000000" />
<rect x="119" y="48" width="1" height="1" fill="#000000" />
<rect x="120" y="48" width="1" height="1" fill="#000000" />
<rect x="121" y="48" width="1" height="1" fill="#000000" />
<rect x="5" y="49" width="1" height="1" fill="#000000" />
<rect x="6" y="49" width="1" height="1" fill="#000000" />
<rect x="121" y="49" width="1" height="1" fill="#000000" />
<rect x="122" y="49" width="1" height="1" fill="#000000" />
<rect x="4" y="50" width="1" height="1" fill="#000000" />
<rect x="5" y="50" width="1" height="1" fill="#000000" />
<rect x="122" y="50" width="1" height="1" fill="#000000" />
<rect x="123" y="50" width="1" height="1" fill="#000000" />
<rect x="4" y="51" width="1" height="1" fill="#000000" />
<rect x="123" y="51" width="1" height="1" fill="#000000" />
<rect x="3" y="52" width="1" height="1" fill="#000000" />
<rect x="4" y="52" width="1" height="1" fill="#000000" />
<rect x="123" y="52" width="1" height="1" fill="#000000" />
<rect x="124" y="52" width="1" height="1" fill="#000000" />
<rect x="2" y="53" width="1" height="1" fill="#000000" />
<rect x="3" y="53" width="1" height="1" fill="#000000" />
<rect x="124" y="53" width="1" height="1" fill="#000000" />
<rect x="125" y="53" width="1" height="1" fill="#000000" />
<rect x="2" y="54" width="1" height="1" fill="#000000" />
<rect x="125" y="54" width="1" height="1" fill="#000000" />
<rect x="1" y="55" width="1" height="1" fill="#000000" />
<rect x="2" y="55" width="1" height="1" fill="#000000" />
<rect x="125" y="55" width="1" height="1" fill="#000000" />
<rect x="126" y="55" width="1" height="1" fill="#000000" />
<rect x="0" y="56" width="1" height="1" fill="#000000" />
<rect x="1" y="56" width="1" height="1" fill="#000000" />
<rect x="126" y="56" width="1" height="1" fill="#000000" />
<rect x="127" y="56" width="1" height="1" fill="#000000" />
<rect x="0" y="57" width="1" height="1" fill="#000000" />
<rect x="127" y="57" width="1" height="1" fill="#000000" />
<rect x="0" y="58" width="1" height="1" fill="#000000" />
<rect x="127" y="58" width="1" height="1" fill="#000000" />
<rect x="0" y="59" width="1" height="1" fill="#000000" />
<rect x="127" y="59" width="1" height="1" fill="#000000" />
<rect x="0" y="60" width="1" height="1" fill="#000000" />
<rect x="127" y="60" width="1" height="1" fill="#000000" />
<rect x="0" y="61" width="1" height="1" fill="#000000" />
<rect x="127" y="61" width="1" height="1" fill="#000000" />
<rect x="0" y="62" width="1" height="1" fill="#000000" />
<rect x="127" y="62" width="1" height="1" fill="#000000" />
<rect x="0" y="63" width="1" height="1" fill="#000000" />
<rect x="127" y="63" width="1" height="1" fill="#000000" />
<rect x="0" y="64" width="1" height="1" fill="#000000" />
<rect x="127" y="64" width="1" height="1" fill="#000000" />
<rect x="0" y="65" width="1" height="1" fill="#000000" />
<rect x="127" y="65" width="1" height="1" fill="#000000" />
<rect x="0" y="66" width="1" height="1" fill="#000000" />
<rect x="127" y="66" width="1" height="1" fill="#000000" />
<rect x="0" y="67" width="1" height="1" fill="#000000" />
<rect x="127" y="67" width="1" height="1" fill="#000000" />
<rect x="0" y="68" width="1" height="1" fill="#000000" />
<rect x="127" y="68" width="1" height="1" fill="#000000" />
<rect x="0" y="69" width="1" height="1" fill="#000000" />
<rect x="127" y="69" width="1" height="1" fill="#000000" />
<rect x="0" y="70" width="1" height="1" fill="#000000" />
<rect x="127" y="70" width="1" height="1" fill="#000000" />
<rect x="0" y="71" width="1" height="1" fill="#000000" />
<rect x="1" y="71" width="1" height="1" fill="#000000" />
<rect x="126" y="71" width="1" height="1" fill="#000000" />
<rect x="127" y="71" width="1" height="1" fill="#000000" />
<rect x="0" y="72" width="1" height="1" fill="#222034" />
<rect x="1" y="72" width="1" height="1" fill="#000000" />
<rect x="2" y="72" width="1" height="1" fill="#000000" />
<rect x="125" y="72" width="1" height="1" fill="#000000" />
<rect x="126" y="72" width="1" height="1" fill="#000000" />
<rect x="0" y="73" width="1" height="1" fill="#222034" />
<rect x="1" y="73" width="1" height="1" fill="#222034" />
<rect x="2" y="73" width="1" height="1" fill="#000000" />
<rect x="125" y="73" width="1" height="1" fill="#000000" />
<rect x="0" y="74" width="1" height="1" fill="#222034" />
<rect x="1" y="74" width="1" height="1" fill="#222034" />
<rect x="2" y="74" width="1" height="1" fill="#000000" />
<rect x="3" y="74" width="1" height="1" fill="#000000" />
<rect x="124" y="74" width="1" height="1" fill="#000000" />
<rect x="125" y="74" width="1" height="1" fill="#000000" />
<rect x="1" y="75" width="1" height="1" fill="#222034" />
<rect x="2" y="75" width="1" height="1" fill="#222034" />
<rect x="3" y="75" width="1" height="1" fill="#000000" />
<rect x="4" y="75" width="1" height="1" fill="#000000" />
<rect x="123" y="75" width="1" height="1" fill="#000000" />
<rect x="124" y="75" width="1" height="1" fill="#000000" />
<rect x="1" y="76" width="1" height="1" fill="#222034" />
<rect x="2" y="76" width="1" height="1" fill="#222034" />
<rect x="3" y="76" width="1" height="1" fill="#222034" />
<rect x="4" y="76" width="1" height="1" fill="#000000" />
<rect x="123" y="76" width="1" height="1" fill="#000000" />
<rect x="2" y="77" width="1" height="1" fill="#222034" />
<rect x="3" y="77" width="1" height="1" fill="#222034" />
<rect x="4" y="77" width="1" height="1" fill="#000000" />
<rect x="5" y="77" width="1" height="1" fill="#000000" />
<rect x="122" y="77" width="1" height="1" fill="#000000" />
<rect x="123" y="77" width="1" height="1" fill="#000000" />
<rect x="3" y="78" width="1" height="1" fill="#222034" />
<rect x="4" y="78" width="1" height="1" fill="#222034" />
<rect x="5" y="78" width="1" height="1" fill="#000000" />
<rect x="6" y="78" width="1" height="1" fill="#000000" />
<rect x="121" y="78" width="1" height="1" fill="#000000" />
<rect x="122" y="78" width="1" height="1" fill="#000000" />
<rect x="3" y="79" width="1" height="1" fill="#222034" />
<rect x="4" y="79" width="1" height="1" fill="#222034" />
<rect x="5" y="79" width="1" height="1" fill="#222034" />
<rect x="6" y="79" width="1" height="1" fill="#000000" />
<rect x="7" y="79" width="1" height="1" fill="#000000" />
<rect x="8" y="79" width="1" height="1" fill="#000000" />
<rect x="9" y="79" width="1" height="1" fill="#000000" />
<rect x="10" y="79" width="1" height="1" fill="#000000" />
<rect x="11" y="79" width="1" height="1" fill="#000000" />
<rect x="12" y="79" width="1" height="1" fill="#000000" />
<rect x="13" y="79" width="1" height="1" fill="#000000" />
<rect x="14" y="79" width="1" height="1" fill="#000000" />
<rect x="15" y="79" width="1" height="1" fill="#000000" />
<rect x="16" y="79" width="1" height="1" fill="#000000" />
<rect x="17" y="79" width="1" height="1" fill="#000000" />
<rect x="18" y="79" width="1" height="1" fill="#000000" />
<rect x="19" y="79" width="1" height="1" fill="#000000" />
<rect x="20" y="79" width="1" height="1" fill="#000000" />
<rect x="21" y="79" width="1" height="1" fill="#000000" />
<rect x="22" y="79" width="1" height="1" fill="#000000" />
<rect x="23" y="79" width="1" height="1" fill="#000000" />
<rect x="24" y="79" width="1" height="1" fill="#000000" />
<rect x="25" y="79" width="1" height="1" fill="#000000" />
<rect x="26" y="79" width="1" height="1" fill="#000000" />
<rect x="27" y="79" width="1" height="1" fill="#000000" />
<rect x="28" y="79" width="1" height="1" fill="#000000" />
<rect x="29" y="79" width="1" height="1" fill="#000000" />
<rect x="30" y="79" width="1" height="1" fill="#000000" />
<rect x="31" y="79" width="1" height="1" fill="#000000" />
<rect x="32" y="79" width="1" height="1" fill="#000000" />
<rect x="33" y="79" width="1" height="1" fill="#000000" />
<rect x="34" y="79" width="1" height="1" fill="#000000" />
<rect x="35" y="79" width="1" height="1" fill="#000000" />
<rect x="36" y="79" width="1" height="1" fill="#000000" />
<rect x="37" y="79" width="1" height="1" fill="#000000" />
<rect x="38" y="79" width="1" height="1" fill="#000000" />
<rect x="39" y="79" width="1" height="1" fill="#000000" />
<rect x="40" y="79" width="1" height="1" fill="#000000" />
<rect x="41" y="79" width="1" height="1" fill="#000000" />
<rect x="42" y="79" width="1" height="1" fill="#000000" />
<rect x="43" y="79" width="1" height="1" fill="#000000" />
<rect x="44" y="79" width="1" height="1" fill="#000000" />
<rect x="45" y="79" width="1" height="1" fill="#000000" />
<rect x="46" y="79" width="1" height="1" fill="#000000" />
<rect x="47" y="79" width="1" height="1" fill="#000000" />
<rect x="48" y="79" width="1" height="1" fill="#000000" />
<rect x="49" y="79" width="1" height="1" fill="#000000" />
<rect x="50" y="79" width="1" height="1" fill="#000000" />
<rect x="51" y="79" width="1" height="1" fill="#000000" />
<rect x="52" y="79" width="1" height="1" fill="#000000" />
<rect x="53" y="79" width="1" height="1" fill="#000000" />
<rect x="54" y="79" width="1" height="1" fill="#000000" />
<rect x="55" y="79" width="1" height="1" fill="#000000" />
<rect x="56" y="79" width="1" height="1" fill="#000000" />
<rect x="57" y="79" width="1" height="1" fill="#000000" />
<rect x="58" y="79" width="1" height="1" fill="#000000" />
<rect x="59" y="79" width="1" height="1" fill="#000000" />
<rect x="60" y="79" width="1" height="1" fill="#000000" />
<rect x="61" y="79" width="1" height="1" fill="#000000" />
<rect x="62" y="79" width="1" height="1" fill="#000000" />
<rect x="63" y="79" width="1" height="1" fill="#000000" />
<rect x="64" y="79" width="1" height="1" fill="#000000" />
<rect x="65" y="79" width="1" height="1" fill="#000000" />
<rect x="66" y="79" width="1" height="1" fill="#000000" />
<rect x="67" y="79" width="1" height="1" fill="#000000" />
<rect x="68" y="79" width="1" height="1" fill="#000000" />
<rect x="69" y="79" width="1" height="1" fill="#000000" />
<rect x="70" y="79" width="1" height="1" fill="#000000" />
<rect x="71" y="79" width="1" height="1" fill="#000000" />
<rect x="72" y="79" width="1" height="1" fill="#000000" />
<rect x="73" y="79" width="1" height="1" fill="#000000" />
<rect x="74" y="79" width="1" height="1" fill="#000000" />
<rect x="75" y="79" width="1" height="1" fill="#000000" />
<rect x="76" y="79" width="1" height="1" fill="#000000" />
<rect x="77" y="79" width="1" height="1" fill="#000000" />
<rect x="78" y="79" width="1" height="1" fill="#000000" />
<rect x="79" y="79" width="1" height="1" fill="#000000" />
<rect x="80" y="79" width="1" height="1" fill="#000000" />
<rect x="81" y="79" width="1" height="1" fill="#000000" />
<rect x="82" y="79" width="1" height="1" fill="#000000" />
<rect x="83" y="79" width="1" height="1" fill="#000000" />
<rect x="84" y="79" width="1" height="1" fill="#000000" />
<rect x="85" y="79" width="1" height="1" fill="#000000" />
<rect x="86" y="79" width="1" height="1" fill="#000000" />
<rect x="87" y="79" width="1" height="1" fill="#000000" />
<rect x="88" y="79" width="1" height="1" fill="#000000" />
<rect x="89" y="79" width="1" height="1" fill="#000000" />
<rect x="90" y="79" width="1" height="1" fill="#000000" />
<rect x="91" y="79" width="1" height="1" fill="#000000" />
<rect x="92" y="79" width="1" height="1" fill="#000000" />
<rect x="93" y="79" width="1" height="1" fill="#000000" />
<rect x="94" y="79" width="1" height="1" fill="#000000" />
<rect x="95" y="79" width="1" height="1" fill="#000000" />
<rect x="96" y="79" width="1" height="1" fill="#000000" />
<rect x="97" y="79" width="1" height="1" fill="#000000" />
<rect x="98" y="79" width="1" height="1" fill="#000000" />
<rect x="99" y="79" width="1" height="1" fill="#000000" />
<rect x="100" y="79" width="1" height="1" fill="#000000" />
<rect x="101" y="79" width="1" height="1" fill="#000000" />
<rect x="102" y="79" width="1" height="1" fill="#000000" />
<rect x="103" y="79" width="1" height="1" fill="#000000" />
<rect x="104" y="79" width="1" height="1" fill="#000000" />
<rect x="105" y="79" width="1" height="1" fill="#000000" />
<rect x="106" y="79" width="1" height="1" fill="#000000" />
<rect x="107" y="79" width="1" height="1" fill="#000000" />
<rect x="108" y="79" width="1" height="1" fill="#000000" />
<rect x="109" y="79" width="1" height="1" fill="#000000" />
<rect x="110" y="79" width="1" height="1" fill="#000000" />
<rect x="111" y="79" width="1" height="1" fill="#000000" />
<rect x="112" y="79" width="1" height="1" fill="#000000" />
<rect x="113" y="79" width="1" height="1" fill="#000000" />
<rect x="114" y="79" width="1" height="1" fill="#000000" />
<rect x="115" y="79" width="1" height="1" fill="#000000" />
<rect x="116" y="79" width="1" height="1" fill="#000000" />
<rect x="117" y="79" width="1" height="1" fill="#000000" />
<rect x="118" y="79" width="1" height="1" fill="#000000" />
<rect x="119" y="79" width="1" height="1" fill="#000000" />
<rect x="120" y="79" width="1" height="1" fill="#000000" />
<rect x="121" y="79" width="1" height="1" fill="#000000" />
<rect x="4" y="80" width="1" height="1" fill="#222034" />
<rect x="5" y="80" width="1" height="1" fill="#222034" />
<rect x="6" y="80" width="1" height="1" fill="#222034" />
<rect x="7" y="80" width="1" height="1" fill="#222034" />
<rect x="8" y="80" width="1" height="1" fill="#222034" />
<rect x="9" y="80" width="1" height="1" fill="#222034" />
<rect x="10" y="80" width="1" height="1" fill="#222034" />
<rect x="11" y="80" width="1" height="1" fill="#222034" />
<rect x="12" y="80" width="1" height="1" fill="#222034" />
<rect x="13" y="80" width="1" height="1" fill="#222034" />
<rect x="14" y="80" width="1" height="1" fill="#222034" />
<rect x="15" y="80" width="1" height="1" fill="#222034" />
<rect x="16" y="80" width="1" height="1" fill="#222034" />
<rect x="17" y="80" width="1" height="1" fill="#222034" />
<rect x="18" y="80" width="1" height="1" fill="#222034" />
<rect x="19" y="80" width="1" height="1" fill="#222034" />
<rect x="20" y="80" width="1" height="1" fill="#222034" />
<rect x="21" y="80" width="1" height="1" fill="#222034" />
<rect x="22" y="80" width="1" height="1" fill="#222034" />
<rect x="23" y="80" width="1" height="1" fill="#222034" />
<rect x="24" y="80" width="1" height="1" fill="#222034" />
<rect x="25" y="80" width="1" height="1" fill="#222034" />
<rect x="26" y="80" width="1" height="1" fill="#222034" />
<rect x="27" y="80" width="1" height="1" fill="#222034" />
<rect x="28" y="80" width="1" height="1" fill="#222034" />
<rect x="29" y="80" width="1" height="1" fill="#222034" />
<rect x="30" y="80" width="1" height="1" fill="#222034" />
<rect x="31" y="80" width="1" height="1" fill="#222034" />
<rect x="32" y="80" width="1" height="1" fill="#222034" />
<rect x="33" y="80" width="1" height="1" fill="#222034" />
<rect x="34" y="80" width="1" height="1" fill="#222034" />
<rect x="35" y="80" width="1" height="1" fill="#222034" />
<rect x="36" y="80" width="1" height="1" fill="#222034" />
<rect x="37" y="80" width="1" height="1" fill="#222034" />
<rect x="38" y="80" width="1" height="1" fill="#222034" />
<rect x="39" y="80" width="1" height="1" fill="#222034" />
<rect x="40" y="80" width="1" height="1" fill="#222034" />
<rect x="41" y="80" width="1" height="1" fill="#222034" />
<rect x="42" y="80" width="1" height="1" fill="#222034" />
<rect x="43" y="80" width="1" height="1" fill="#222034" />
<rect x="44" y="80" width="1" height="1" fill="#222034" />
<rect x="45" y="80" width="1" height="1" fill="#222034" />
<rect x="46" y="80" width="1" height="1" fill="#222034" />
<rect x="47" y="80" width="1" height="1" fill="#222034" />
<rect x="48" y="80" width="1" height="1" fill="#222034" />
<rect x="49" y="80" width="1" height="1" fill="#222034" />
<rect x="50" y="80" width="1" height="1" fill="#222034" />
<rect x="51" y="80" width="1" height="1" fill="#222034" />
<rect x="52" y="80" width="1" height="1" fill="#222034" />
<rect x="53" y="80" width="1" height="1" fill="#222034" />
<rect x="54" y="80" width="1" height="1" fill="#222034" />
<rect x="55" y="80" width="1" height="1" fill="#222034" />
<rect x="56" y="80" width="1" height="1" fill="#222034" />
<rect x="57" y="80" width="1" height="1" fill="#222034" />
<rect x="58" y="80" width="1" height="1" fill="#222034" />
<rect x="59" y="80" width="1" height="1" fill="#222034" />
<rect x="60" y="80" width="1" height="1" fill="#222034" />
<rect x="61" y="80" width="1" height="1" fill="#222034" />
<rect x="62" y="80" width="1" height="1" fill="#222034" />
<rect x="63" y="80" width="1" height="1" fill="#222034" />
<rect x="64" y="80" width="1" height="1" fill="#222034" />
<rect x="65" y="80" width="1" height="1" fill="#222034" />
<rect x="66" y="80" width="1" height="1" fill="#222034" />
<rect x="67" y="80" width="1" height="1" fill="#222034" />
<rect x="68" y="80" width="1" height="1" fill="#222034" />
<rect x="69" y="80" width="1" height="1" fill="#222034" />
<rect x="70" y="80" width="1" height="1" fill="#222034" />
<rect x="71" y="80" width="1" height="1" fill="#222034" />
<rect x="72" y="80" width="1" height="1" fill="#222034" />
<rect x="73" y="80" width="1" height="1" fill="#222034" />
<rect x="74" y="80" width="1" height="1" fill="#222034" />
<rect x="75" y="80" width="1" height="1" fill="#222034" />
<rect x="76" y="80" width="1" height="1" fill="#222034" />
<rect x="77" y="80" width="1" height="1" fill="#222034" />
<rect x="78" y="80" width="1" height="1" fill="#222034" />
<rect x="79" y="80" width="1" height="1" fill="#222034" />
<rect x="80" y="80" width="1" height="1" fill="#222034" />
<rect x="81" y="80" width="1" height="1" fill="#222034" />
<rect x="82" y="80" width="1" height="1" fill="#222034" />
<rect x="83" y="80" width="1" height="1" fill="#222034" />
<rect x="84" y="80" width="1" height="1" fill="#222034" />
<rect x="85" y="80" width="1" height="1" fill="#222034" />
<rect x="86" y="80" width="1" height="1" fill="#222034" />
<rect x="87" y="80" width="1" height="1" fill="#222034" />
<rect x="88" y="80" width="1" height="1" fill="#222034" />
<rect x="89" y="80" width="1" height="1" fill="#222034" />
<rect x="90" y="80" width="1" height="1" fill="#222034" />
<rect x="91" y="80" width="1" height="1" fill="#222034" />
<rect x="92" y="80" width="1" height="1" fill="#222034" />
<rect x="93" y="80" width="1" height="1" fill="#222034" />
<rect x="94" y="80" width="1" height="1" fill="#222034" />
<rect x="95" y="80" width="1" height="1" fill="#222034" />
<rect x="96" y="80" width="1" height="1" fill="#222034" />
<rect x="97" y="80" width="1" height="1" fill="#222034" />
<rect x="98" y="80" width="1" height="1" fill="#222034" />
<rect x="99" y="80" width="1" height="1" fill="#222034" />
<rect x="100" y="80" width="1" height="1" fill="#222034" />
<rect x="101" y="80" width="1" height="1" fill="#222034" />
<rect x="102" y="80" width="1" height="1" fill="#222034" />
<rect x="103" y="80" width="1" height="1" fill="#222034" />
<rect x="104" y="80" width="1" height="1" fill="#222034" />
<rect x="105" y="80" width="1" height="1" fill="#222034" />
<rect x="106" y="80" width="1" height="1" fill="#222034" />
<rect x="107" y="80" width="1" height="1" fill="#222034" />
<rect x="108" y="80" width="1" height="1" fill="#222034" />
<rect x="109" y="80" width="1" height="1" fill="#222034" />
<rect x="110" y="80" width="1" height="1" fill="#222034" />
<rect x="111" y="80" width="1" height="1" fill="#222034" />
<rect x="112" y="80" width="1" height="1" fill="#222034" />
<rect x="113" y="80" width="1" height="1" fill="#222034" />
<rect x="114" y="80" width="1" height="1" fill="#222034" />
<rect x="115" y="80" width="1" height="1" fill="#222034" />
<rect x="116" y="80" width="1" height="1" fill="#222034" />
<rect x="117" y="80" width="1" height="1" fill="#222034" />
<rect x="118" y="80" width="1" height="1" fill="#222034" />
<rect x="119" y="80" width="1" height="1" fill="#222034" />
<rect x="120" y="80" width="1" height="1" fill="#222034" />
<rect x="5" y="81" width="1" height="1" fill="#222034" />
<rect x="6" y="81" width="1" height="1" fill="#222034" />
<rect x="7" y="81" width="1" height="1" fill="#222034" />
<rect x="8" y="81" width="1" height="1" fill="#222034" />
<rect x="9" y="81" width="1" height="1" fill="#222034" />
<rect x="10" y="81" width="1" height="1" fill="#222034" />
<rect x="11" y="81" width="1" height="1" fill="#222034" />
<rect x="12" y="81" width="1" height="1" fill="#222034" />
<rect x="13" y="81" width="1" height="1" fill="#222034" />
<rect x="14" y="81" width="1" height="1" fill="#222034" />
<rect x="15" y="81" width="1" height="1" fill="#222034" />
<rect x="16" y="81" width="1" height="1" fill="#222034" />
<rect x="17" y="81" width="1" height="1" fill="#222034" />
<rect x="18" y="81" width="1" height="1" fill="#222034" />
<rect x="19" y="81" width="1" height="1" fill="#222034" />
<rect x="20" y="81" width="1" height="1" fill="#222034" />
<rect x="21" y="81" width="1" height="1" fill="#222034" />
<rect x="22" y="81" width="1" height="1" fill="#222034" />
<rect x="23" y="81" width="1" height="1" fill="#222034" />
<rect x="24" y="81" width="1" height="1" fill="#222034" />
<rect x="25" y="81" width="1" height="1" fill="#222034" />
<rect x="26" y="81" width="1" height="1" fill="#222034" />
<rect x="27" y="81" width="1" height="1" fill="#222034" />
<rect x="28" y="81" width="1" height="1" fill="#222034" />
<rect x="29" y="81" width="1" height="1" fill="#222034" />
<rect x="30" y="81" width="1" height="1" fill="#222034" />
<rect x="31" y="81" width="1" height="1" fill="#222034" />
<rect x="32" y="81" width="1" height="1" fill="#222034" />
<rect x="33" y="81" width="1" height="1" fill="#222034" />
<rect x="34" y="81" width="1" height="1" fill="#222034" />
<rect x="35" y="81" width="1" height="1" fill="#222034" />
<rect x="36" y="81" width="1" height="1" fill="#222034" />
<rect x="37" y="81" width="1" height="1" fill="#222034" />
<rect x="38" y="81" width="1" height="1" fill="#222034" />
<rect x="39" y="81" width="1" height="1" fill="#222034" />
<rect x="40" y="81" width="1" height="1" fill="#222034" />
<rect x="41" y="81" width="1" height="1" fill="#222034" />
<rect x="42" y="81" width="1" height="1" fill="#222034" />
<rect x="43" y="81" width="1" height="1" fill="#222034" />
<rect x="44" y="81" width="1" height="1" fill="#222034" />
<rect x="45" y="81" width="1" height="1" fill="#222034" />
<rect x="46" y="81" width="1" height="1" fill="#222034" />
<rect x="47" y="81" width="1" height="1" fill="#222034" />
<rect x="48" y="81" width="1" height="1" fill="#222034" />
<rect x="49" y="81" width="1" height="1" fill="#222034" />
<rect x="50" y="81" width="1" height="1" fill="#222034" />
<rect x="51" y="81" width="1" height="1" fill="#222034" />
<rect x="52" y="81" width="1" height="1" fill="#222034" />
<rect x="53" y="81" width="1" height="1" fill="#222034" />
<rect x="54" y="81" width="1" height="1" fill="#222034" />
<rect x="55" y="81" width="1" height="1" fill="#222034" />
<rect x="56" y="81" width="1" height="1" fill="#222034" />
<rect x="57" y="81" width="1" height="1" fill="#222034" />
<rect x="58" y="81" width="1" height="1" fill="#222034" />
<rect x="59" y="81" width="1" height="1" fill="#222034" />
<rect x="60" y="81" width="1" height="1" fill="#222034" />
<rect x="61" y="81" width="1" height="1" fill="#222034" />
<rect x="62" y="81" width="1" height="1" fill="#222034" />
<rect x="63" y="81" width="1" height="1" fill="#222034" />
<rect x="64" y="81" width="1" height="1" fill="#222034" />
<rect x="65" y="81" width="1" height="1" fill="#222034" />
<rect x="66" y="81" width="1" height="1" fill="#222034" />
<rect x="67" y="81" width="1" height="1" fill="#222034" />
<rect x="68" y="81" width="1" height="1" fill="#222034" />
<rect x="69" y="81" width="1" height="1" fill="#222034" />
<rect x="70" y="81" width="1" height="1" fill="#222034" />
<rect x="71" y="81" width="1" height="1" fill="#222034" />
<rect x="72" y="81" width="1" height="1" fill="#222034" />
<rect x="73" y="81" width="1" height="1" fill="#222034" />
<rect x="74" y="81" width="1" height="1" fill="#222034" />
<rect x="75" y="81" width="1" height="1" fill="#222034" />
<rect x="76" y="81" width="1" height="1" fill="#222034" />
<rect x="77" y="81" width="1" height="1" fill="#222034" />
<rect x="78" y="81" width="1" height="1" fill="#222034" />
<rect x="79" y="81" width="1" height="1" fill="#222034" />
<rect x="80" y="81" width="1" height="1" fill="#222034" />
<rect x="81" y="81" width="1" height="1" fill="#222034" />
<rect x="82" y="81" width="1" height="1" fill="#222034" />
<rect x="83" y="81" width="1" height="1" fill="#222034" />
<rect x="84" y="81" width="1" height="1" fill="#222034" />
<rect x="85" y="81" width="1" height="1" fill="#222034" />
<rect x="86" y="81" width="1" height="1" fill="#222034" />
<rect x="87" y="81" width="1" height="1" fill="#222034" />
<rect x="88" y="81" width="1" height="1" fill="#222034" />
<rect x="89" y="81" width="1" height="1" fill="#222034" />
<rect x="90" y="81" width="1" height="1" fill="#222034" />
<rect x="91" y="81" width="1" height="1" fill="#222034" />
<rect x="92" y="81" width="1" height="1" fill="#222034" />
<rect x="93" y="81" width="1" height="1" fill="#222034" />
<rect x="94" y="81" width="1" height="1" fill="#222034" />
<rect x="95" y="81" width="1" height="1" fill="#222034" />
<rect x="96" y="81" width="1" height="1" fill="#222034" />
<rect x="97" y="81" width="1" height="1" fill="#222034" />
<rect x="98" y="81" width="1" height="1" fill="#222034" />
<rect x="99" y="81" width="1" height="1" fill="#222034" />
<rect x="100" y="81" width="1" height="1" fill="#222034" />
<rect x="101" y="81" width="1" height="1" fill="#222034" />
<rect x="102" y="81" width="1" height="1" fill="#222034" />
<rect x="103" y="81" width="1" height="1" fill="#222034" />
<rect x="104" y="81" width="1" height="1" fill="#222034" />
<rect x="105" y="81" width="1" height="1" fill="#222034" />
<rect x="106" y="81" width="1" height="1" fill="#222034" />
<rect x="107" y="81" width="1" height="1" fill="#222034" />
<rect x="108" y="81" width="1" height="1" fill="#222034" />
<rect x="109" y="81" width="1" height="1" fill="#222034" />
<rect x="110" y="81" width="1" height="1" fill="#222034" />
<rect x="111" y="81" width="1" height="1" fill="#222034" />
<rect x="112" y="81" width="1" height="1" fill="#222034" />
<rect x="113" y="81" width="1" height="1" fill="#222034" />
<rect x="114" y="81" width="1" height="1" fill="#222034" />
<rect x="115" y="81" width="1" height="1" fill="#222034" />
<rect x="116" y="81" width="1" height="1" fill="#222034" />
<rect x="117" y="81" width="1" height="1" fill="#222034" />
<rect x="118" y="81" width="1" height="1" fill="#222034" />
<rect x="119" y="81" width="1" height="1" fill="#222034" />
</svg>